<svg width="200" height="200" viewBox="0 0 200 200" fill="none" xmlns="http://www.w3.org/2000/svg">
<g clip-path="url(#clip0_776_352)">
<path d="M99.1529 0.0567017C48.5027 0.0567053 51.6656 22.1078 51.6656 22.1078L51.7221 44.9526H100.056V51.8117H32.5239C32.5239 51.8117 0.112793 48.1215 0.112793 99.4285C0.112789 150.735 28.4019 148.916 28.4019 148.916H45.285V125.108C45.285 125.108 44.375 96.7075 73.1224 96.7075H121.061C121.061 96.7075 147.995 97.1446 147.995 70.575V26.6428C147.995 26.6428 152.085 0.0567017 99.1529 0.0567017ZM72.5013 15.4188C77.3102 15.4188 81.1969 19.3208 81.1969 24.1486C81.1969 28.9763 77.3102 32.8783 72.5013 32.8783C67.6924 32.8783 63.8056 28.9763 63.8056 24.1486C63.8056 19.3208 67.6924 15.4188 72.5013 15.4188Z" fill="url(#paint0_linear_776_352)"/>
<path d="M100.591 199.315C151.242 199.315 148.079 177.264 148.079 177.264L148.022 154.419H99.6881V147.56H167.221C167.221 147.56 199.632 151.25 199.632 99.9429C199.632 48.636 171.342 50.4554 171.342 50.4554H154.459V74.2638C154.459 74.2638 155.369 102.664 126.622 102.664H78.683C78.683 102.664 51.749 102.227 51.749 128.796V172.729C51.749 172.729 47.6597 199.315 100.591 199.315ZM127.243 183.953C122.434 183.953 118.547 180.051 118.547 175.223C118.547 170.395 122.434 166.493 127.243 166.493C132.052 166.493 135.939 170.395 135.939 175.223C135.939 180.051 132.052 183.953 127.243 183.953Z" fill="url(#paint1_linear_776_352)"/>
</g>
<defs>
<linearGradient id="paint0_linear_776_352" x1="1917.53" y1="1792.33" x2="11843.3" y2="11580.6" gradientUnits="userSpaceOnUse">
<stop stop-color="#387EB8"/>
<stop offset="1" stop-color="#366994"/>
</linearGradient>
<linearGradient id="paint1_linear_776_352" x1="2881.7" y1="3114.01" x2="13539" y2="13149.3" gradientUnits="userSpaceOnUse">
<stop stop-color="#FFE052"/>
<stop offset="1" stop-color="#FFC331"/>
</linearGradient>
<clipPath id="clip0_776_352">
<rect width="200" height="200" fill="white"/>
</clipPath>
</defs>
</svg>
