<svg width="500" height="500" viewBox="0 0 500 500" fill="none" xmlns="http://www.w3.org/2000/svg">
<path d="M322.272 204.029C322.272 196.347 313.97 191.534 307.303 195.35L254.973 225.31C251.848 227.099 249.926 230.43 249.942 234.031L250.5 363.561V447.576L307.273 480.343C313.939 484.191 322.272 479.38 322.272 471.682V322.129V204.029Z" fill="url(#paint0_linear_69_6)"/>
<path fill-rule="evenodd" clip-rule="evenodd" d="M440 125.168C440 121.595 438.094 118.294 435 116.507L255.5 12.8861C252.406 11.1001 248.594 11.1002 245.5 12.8861L66.0005 116.507C62.9062 118.294 61 121.595 61 125.168V332.408C61 335.981 62.9062 339.283 66.0005 341.069L250.5 447.576L435 341.069C438.094 339.283 440 335.981 440 332.408V125.168ZM245.5 96.9007C248.594 95.1148 252.406 95.1148 255.5 96.9007L362.232 158.515C365.326 160.301 367.232 163.602 367.232 167.175V290.401C367.232 293.974 365.326 297.275 362.232 299.061L322.272 322.129V204.029C322.272 196.347 313.97 191.534 307.303 195.35L254.973 225.31C251.848 227.099 249.926 230.43 249.942 234.031L250.5 363.561L138.768 299.061C135.674 297.275 133.768 293.974 133.768 290.401V167.175C133.768 163.602 135.674 160.301 138.768 158.515L245.5 96.9007Z" fill="url(#paint1_linear_69_6)"/>
<defs>
<linearGradient id="paint0_linear_69_6" x1="195" y1="133.5" x2="311.5" y2="326.5" gradientUnits="userSpaceOnUse">
<stop stop-color="#FF79BE"/>
<stop offset="1" stop-color="#89DDFF"/>
</linearGradient>
<linearGradient id="paint1_linear_69_6" x1="195" y1="133.5" x2="311.5" y2="326.5" gradientUnits="userSpaceOnUse">
<stop stop-color="#FF79BE"/>
<stop offset="1" stop-color="#89DDFF"/>
</linearGradient>
</defs>
</svg>
